<svg width="375" height="375" viewBox="0 0 375 375" fill="none" xmlns="http://www.w3.org/2000/svg">
<g clip-path="url(#clip0_864_9158)">
<rect width="375" height="375" fill="#F95A2C"/>
<g clip-path="url(#clip1_864_9158)">
<path fill-rule="evenodd" clip-rule="evenodd" d="M179.053 359.227C178.465 353.758 178.102 348.251 177.894 342.754C177.686 337.264 177.958 331.707 178.077 326.215C178.321 315.042 178.716 303.843 177.827 292.688C176.987 282.145 175.057 271.675 172.013 261.545C170.531 256.612 168.968 251.48 166.53 246.921C164.078 242.338 160.195 239.286 155.929 236.487C151.387 233.507 146.881 230.471 142.357 227.463C138.56 224.939 131.725 222 128.609 218.625C125.331 215.074 124.714 206.271 122.531 202.064C120.404 197.966 114.385 195.293 109.751 195.293C102.079 195.293 96.2666 194.901 89.9586 202C86.8114 205.542 89.3155 209.123 86.0166 212.522C82.9837 215.648 75.2273 218.86 71.3183 220.674C66.6364 222.846 61.8364 224.764 56.9667 226.472C51.9993 228.215 46.9066 229.514 41.9113 231.159C37.1232 232.735 30.8709 239.233 27.1538 242.671C23.6979 245.868 22.8403 245.51 20.2131 249.394C14.4471 257.916 8.67486 266.536 4.08327 275.764C1.7962 280.36 -0.418316 285.195 -1.24812 290.299C-2.13325 295.744 -1.25564 301.005 0.179776 306.277C1.64092 311.641 6.2808 316.749 7.7924 322.1C8.489 324.565 6.09785 327.257 7.19771 329.58C7.74703 330.741 8.43878 331.774 9.22637 332.785C9.8332 333.565 12.1997 333.392 12.5059 334.346C12.8152 335.309 11.1031 337.307 11.0777 338.304C11.0415 339.731 10.9847 341.157 10.9379 342.584L10.6613 351.017C10.4796 356.559 10.2978 362.102 10.1161 367.644C10.0567 369.453 9.97004 371.22 10.4036 372.937C10.2471 372.792 10.0984 372.634 9.96252 372.456C9.56484 371.937 8.72145 372.377 9.05895 372.985C9.62235 373.999 10.4325 374.712 11.3844 375.225C12.4905 376.856 180.011 380.5 180.835 375.73C181.297 373.054 180.456 370.189 180.119 367.531C179.769 364.761 179.352 362.004 179.053 359.227Z" fill="white"/>
<path fill-rule="evenodd" clip-rule="evenodd" d="M8.88612 290.309C9.29593 289.134 11.1705 289.643 10.7578 290.825C8.63621 296.904 10.1413 303.52 12.4349 309.323C12.8952 310.487 11.0172 310.988 10.5632 309.839C8.15046 303.734 6.65778 296.693 8.88612 290.309ZM23.1112 325.034C29.0945 325.876 35.0827 326.395 41.1073 326.815C41.3766 326.835 41.6096 326.794 41.811 326.706C41.6314 329.466 41.4858 332.228 41.3718 334.99C39.7292 334.944 38.0526 335.053 36.4245 335.01C34.2966 334.951 32.1711 334.845 30.0481 334.682C25.9379 334.371 21.8349 333.876 17.7708 333.192C16.2519 332.937 14.323 332.781 12.593 332.277C10.9577 331.799 9.50185 331.007 8.73755 329.517C8.0873 328.255 7.96841 326.709 7.96841 325.313C7.96841 324.352 8.1334 323.376 8.23288 322.407C8.35662 322.32 8.46823 322.216 8.55801 322.099C10.3632 322.669 12.2363 323.07 14.0706 323.458C17.0575 324.094 20.088 324.609 23.1112 325.034ZM19.7367 302.59C19.7697 304.446 20.2828 306.131 21.2813 307.693C21.9568 308.75 20.2761 309.723 19.6052 308.673C18.4299 306.834 17.8344 304.769 17.7956 302.59C17.7733 301.338 19.7144 301.342 19.7367 302.59ZM173.113 322.83C173.923 322.875 174.738 322.903 175.55 322.946C176.267 323.559 177.26 323.873 178.166 323.678C178.197 323.757 178.226 323.845 178.251 323.946C178.412 324.57 178.492 325.24 178.584 325.876C178.676 326.502 178.746 327.133 178.795 327.765C178.819 328.082 178.972 328.801 178.778 329.078C178.603 329.328 178.218 329.306 177.951 329.337C177.232 329.415 176.505 329.452 175.781 329.512C174.415 329.631 173.049 329.75 171.686 329.869C170.349 329.986 168.881 329.949 167.573 330.301C167.35 327.677 167.146 325.053 166.957 322.427C168.983 322.726 171.101 322.718 173.113 322.83ZM3.2391 318.478C4.05435 320.053 4.80652 321.602 6.36665 322.548C6.57047 322.67 6.79854 322.735 7.03147 322.752C6.85677 323.502 6.74759 324.269 6.65053 324.978C6.43702 326.539 6.39092 328.153 6.78156 329.692C7.16249 331.189 7.79334 332.527 9.03077 333.486C9.60581 333.932 10.2342 334.272 10.8942 334.541C10.7826 334.855 10.7171 335.165 10.751 335.508C10.5933 336.301 10.489 337.11 10.375 337.884C10.125 339.602 9.87513 341.323 9.6786 343.051C9.28553 346.488 8.97739 349.926 8.71777 353.375C8.45815 356.814 8.27133 360.259 8.11604 363.705C8.03597 365.468 7.96561 367.23 7.9001 368.994C7.83459 370.808 7.541 372.662 8.34169 374.344C8.9871 375.704 11.1684 375.626 11.838 374.344C12.6873 372.715 12.4373 370.781 12.4592 368.994C12.481 367.312 12.5101 365.628 12.5465 363.946C12.6193 360.501 12.7261 357.059 12.811 353.615C12.8935 350.253 12.9954 346.894 13.0633 343.532C13.0973 341.772 13.0997 340.012 13.1094 338.253C13.1143 337.277 13.1555 336.236 13.0828 335.219C13.6893 335.362 14.3008 335.483 14.9049 335.607C19.5174 336.554 24.1784 337.243 28.8685 337.67C31.2245 337.884 33.5877 338.034 35.951 338.119C37.6882 338.182 39.4886 338.304 41.2525 338.238C41.1142 342.452 41.0511 346.668 41.0584 350.885C41.0633 353.926 41.1045 356.967 41.1797 360.008C41.221 361.608 41.2549 363.208 41.3035 364.807C41.3253 365.526 41.3253 366.251 41.3738 366.967C41.3884 367.191 41.4199 367.407 41.4612 367.621C41.301 368.075 41.1676 368.523 41.0584 368.944C40.5246 370.982 40.5246 372.941 40.7624 375.019C40.9662 376.781 42.4487 378.415 44.4068 377.796C44.7246 377.696 45.0425 377.592 45.3579 377.485C48.2404 377.813 51.1398 377.888 54.0636 377.944C58.3364 378.026 62.6116 378.053 66.8868 378.075C75.2722 378.119 83.66 378.141 92.0479 378.165C108.904 378.213 125.759 378.259 142.615 378.308C147.293 378.323 151.971 378.334 156.649 378.349C159.071 378.356 161.487 378.359 163.906 378.451C165.035 378.495 166.165 378.556 167.293 378.573C168.601 378.594 169.759 378.218 171.008 377.876C171.714 377.679 171.993 376.97 171.843 376.371C172.973 376.64 174.344 376.068 174.73 374.793C175.012 373.868 174.907 372.866 174.488 372.009V372.007C173.677 366.887 172.648 361.793 171.84 356.671C170.955 351.061 170.103 345.44 169.353 339.809C168.79 335.556 168.327 338.571 167.927 334.299C169.671 334.435 171.644 333.903 173.371 333.677C174.611 333.517 175.861 333.388 177.103 333.219C177.011 334.471 177.038 335.748 177.004 336.949C176.938 339.335 176.967 341.712 177.028 344.098C177.144 348.702 177.404 346.022 177.819 350.608C178.239 355.227 178.753 359.829 179.377 364.426C179.697 366.793 180.039 369.157 180.4 371.519C180.568 372.621 180.74 373.72 180.917 374.822C181.128 376.121 181.196 377.352 182.169 378.327C182.909 379.068 184.421 379.004 184.911 377.973C185.532 376.669 185.251 375.553 185.02 374.184C184.833 373.084 184.654 371.985 184.477 370.885C184.098 368.528 183.739 366.169 183.402 363.807C182.752 359.256 182.138 354.698 181.589 350.135C181.036 345.535 180.464 348.222 179.92 343.622C179.646 341.301 179.372 338.986 179.051 336.673C178.889 335.483 178.787 334.216 178.573 332.99C178.641 332.981 178.709 332.968 178.777 332.956C180.252 332.687 181.512 331.854 181.883 330.335C182.237 328.881 181.815 327.209 181.517 325.782C181.262 324.566 181.032 323.014 180.249 321.973C183.006 318.46 184.798 314.041 185.942 309.792C187.188 305.163 187.709 300.331 187.819 295.547C187.948 290.005 187.53 284.495 186.581 279.076C186.558 277.928 186.505 276.78 186.42 275.634C185.586 264.381 182.082 251.062 170.974 245.805C170.93 245.783 170.884 245.763 170.838 245.744C169.967 244.703 168.88 243.766 168.002 242.89C166.447 241.336 164.821 239.851 163.098 238.482C159.687 235.771 155.945 233.605 152.056 231.656C148.123 229.683 144.132 227.831 140.288 225.678C136.94 223.799 133.926 221.537 131.066 218.983C127.851 216.112 125.563 212.24 124.665 208.014C124.619 207.794 124.291 207.854 124.287 208.065C124.051 215.811 129.278 222.656 135.292 226.986C142.484 232.159 151.168 234.608 158.462 239.623C160.274 240.868 161.97 242.273 163.584 243.766C161.111 243.513 158.595 243.674 156.278 244.358C155.366 244.302 154.448 244.285 153.534 244.242C151.442 244.137 149.348 244.04 147.254 243.948C142.986 243.759 138.716 243.586 134.446 243.436C126.068 243.14 117.687 242.916 109.306 242.768C92.4652 242.47 75.6022 242.411 58.7634 242.899C54.197 243.031 30.186 242.12 27.9635 242.377C31.2318 239.547 34.8179 237.237 38.7607 235.336C43.6934 232.964 48.7911 231.382 54.0587 229.935C64.9069 226.957 76.1723 224.085 84.8538 216.519C87.0108 214.638 88.9276 212.476 90.4974 210.08C91.9969 207.794 93.6638 204.866 93.7051 202.077C93.7342 200.097 90.9779 199.376 89.9976 201.072C89.3886 202.123 89.0877 203.276 88.5903 204.378C88.0954 205.47 87.5082 206.524 86.8555 207.531C85.572 209.512 83.9803 211.279 82.2479 212.874C78.555 216.277 74.0808 218.77 69.4514 220.656C58.9405 224.935 47.4445 226.741 37.4844 232.382C33.1267 234.85 28.9558 238.256 26.3378 242.601C25.9156 242.666 25.4959 242.744 25.0761 242.831C25.3891 242.436 25.7046 242.04 26.0224 241.647C26.2311 241.389 25.9084 241.05 25.6536 241.278C20.7014 245.686 16.1399 250.446 12.0055 255.635C8.05053 260.601 4.3625 265.806 1.75176 271.622C-2.94077 282.069 -3.97439 294.018 -1.55048 305.188C-0.89052 308.232 0.0411937 311.213 1.22767 314.094C1.83911 315.582 2.5015 317.048 3.2391 318.478Z" fill="black"/>
<path fill-rule="evenodd" clip-rule="evenodd" d="M110.146 100.598C123.923 100.598 141.178 116.319 146.228 123.01C150.474 128.634 149.874 157.611 149.874 174.801C149.874 178.396 148.249 185.2 147.659 188.639C145.499 201.24 136.084 211.808 117.45 211.808C102.277 211.808 90.6013 207 79.3102 194.704C76.7343 191.899 64.1541 201.942 61.5813 198.325C54.8611 198.325 49.242 135.512 62.4361 116.672C75.6302 97.8318 96.3695 100.598 110.146 100.598Z" fill="white"/>
<path fill-rule="evenodd" clip-rule="evenodd" d="M68.7397 105.022C76.7005 97.7765 87.306 94.2909 98.0062 94.5482C103.548 94.6817 109.07 95.7375 114.304 97.5459C116.922 98.4537 119.457 99.6382 121.881 100.978C122.755 101.46 123.56 102.024 124.335 102.624L124.528 102.774H124.531C126.61 103.522 128.466 104.864 130.15 106.435C133.525 106.165 136.927 106.469 140.19 107.51C144.733 108.961 148.937 111.619 151.89 115.394C155.33 119.788 156.473 125.118 156.065 130.62L155.99 131.555C155.586 136.415 154.864 142.667 150.876 145.861C150.573 146.104 150.238 146.288 149.891 146.4C152.46 150.803 154.569 155.692 155.831 160.629C160.647 179.486 156.944 199.152 151.153 217.328C150.677 218.825 148.413 219.82 147.261 218.357C145.203 215.74 142.214 213.745 138.851 213.371C136.777 213.141 134.712 213.558 132.751 212.616C131.982 212.245 131.24 211.638 130.706 210.9C127.396 212.155 123.832 212.747 120.297 212.602C114.496 212.364 108.294 210.354 104.303 205.946C103.662 205.238 103.5 204.444 103.647 203.728C104.148 203.549 104.662 203.416 105.191 203.333C110.252 206.317 115.831 208.311 121.827 208.436C125.292 208.509 128.671 208.024 131.481 205.86C132.088 205.391 132.647 204.873 133.164 204.315C139.038 200.536 143.179 194.116 145.147 187.239C146.982 180.826 146.756 174.149 146.125 167.571L145.792 164.099C145.307 159.005 144.857 153.895 144.731 148.779L144.769 148.777C146.01 148.697 146.018 146.754 144.769 146.835C141.538 147.044 138.33 146.514 135.109 146.745C135.082 145.221 134.972 143.704 134.524 142.235C134.269 141.395 132.808 141.23 132.653 142.235C132.446 143.58 132.37 144.917 132.347 146.268C127.526 146.203 122.709 145.798 117.887 145.964C116.998 145.015 116.714 143.332 116.298 142.162C116.238 141.989 116.177 141.82 116.114 141.647C115.748 143.32 115.23 144.956 114.548 146.558L113.366 146.562C106.656 146.594 99.809 146.794 93.2568 148.188C92.8014 147.839 92.5304 147.228 92.4571 146.674C91.9819 143.068 91.3035 139.558 90.1014 136.122L89.9294 135.637C89.9153 135.597 89.9005 135.554 89.885 135.509C88.9991 136.94 87.9422 138.273 86.7895 139.514C86.1101 140.246 85.3977 140.946 84.6666 141.626C83.9565 142.415 83.2225 143.192 82.5111 143.983C82.539 144.127 82.5633 144.273 82.5829 144.422C82.8006 146.064 82.8231 147.729 82.6637 149.378C82.3755 152.358 81.5345 155.229 80.1835 157.886L80.1408 158.152C79.9356 159.396 79.6437 160.683 78.9621 161.62C79.8128 162.574 80.4681 163.713 80.8481 164.978C81.1863 166.105 79.6284 167.081 78.8204 166.159C78.1786 165.427 77.4655 164.821 76.6823 164.337C76.6328 164.404 76.5435 164.437 76.4433 164.381C74.262 163.17 70.557 163.536 68.3782 164.677C65.668 166.095 64.6101 169.005 64.9109 171.954C65.1997 174.772 66.4322 178.066 68.8222 179.51C69.9189 180.173 70.773 180.229 71.9376 179.911C72.31 179.81 72.7716 179.499 72.9698 179.345L73.1648 179.189C73.9283 178.585 74.6394 178.172 75.5407 178.156C76.4625 177.868 77.389 178.267 77.7415 179.234L77.7632 179.297C77.9282 179.79 78.2291 180.409 78.1636 181.161C78.0956 181.967 77.7268 182.7 77.1761 183.29C77.0814 183.392 76.9795 183.494 76.8752 183.588C86.3622 193.863 87.5802 209.873 82.7154 222.709C82.5043 223.272 82.2786 223.828 82.0433 224.379C81.2305 226.267 78.1005 225.682 77.7026 223.811C77.5837 223.25 77.4527 222.692 77.3095 222.138C77.0464 221.116 76.7449 220.103 76.4051 219.104L76.2759 218.731C75.9872 217.905 75.7178 217.073 75.4267 216.247L75.3976 216.153C75.3866 216.116 75.3745 216.073 75.3612 216.024L74.8686 217.099L73.3716 220.345C72.671 221.859 70.4452 221.036 70.3625 219.577L70.3605 219.527C70.3532 219.257 70.3435 218.99 70.3265 218.726C70.2198 216.743 69.8776 214.815 69.3341 212.929L69.1381 213.173C66.2182 216.784 62.7914 220.169 58.0905 221.002C56.9113 221.211 55.5768 219.978 56.3872 218.786C56.7221 218.294 57.0448 217.789 57.3505 217.277C57.086 217.153 56.8361 217.024 56.6056 216.893C54.8222 215.891 53.3373 214.463 52.1096 212.844C49.5061 209.412 48.5744 205.092 48.3463 200.863C48.1037 196.395 48.4968 191.683 49.7172 187.372C50.2462 185.508 50.9619 183.719 51.7893 181.984C51.7311 181.829 51.6753 181.673 51.6195 181.518C50.7266 179.027 49.9938 176.481 49.3848 173.906C48.1571 168.707 47.4971 163.342 47.4171 158C47.2715 148.429 48.9214 138.705 52.3983 129.78C55.9893 120.576 61.3903 111.709 68.7397 105.022ZM64.2679 188.7C63.6085 187.661 61.9586 188.597 62.5709 189.643L62.5937 189.681C63.6395 191.329 64.1296 193.203 64.7313 195.04C65.1171 196.222 66.9927 195.717 66.602 194.523L66.4727 194.124C65.8739 192.261 65.3277 190.368 64.2679 188.7ZM70.012 168.874L70.45 168.662C71.8319 168.002 73.0427 167.553 74.6754 168.129C76.8615 168.898 79.2029 171.348 77.7253 173.724C77.1818 174.6 76.2161 174.95 75.2213 174.743C73.5442 174.395 73.1114 172.885 72.2604 171.644L72.1139 171.434C71.5951 170.684 70.9389 169.646 70.0751 169.352C69.8785 169.284 69.796 168.979 70.012 168.874ZM71.2427 118.421L71.3838 118.294C72.3228 117.464 70.9447 116.095 70.0105 116.921C65.7353 120.7 64.2504 126.615 62.0327 131.657C61.5353 132.79 63.2071 133.78 63.7093 132.637C65.8247 127.826 67.2289 122.072 71.2427 118.421ZM122.619 116.768C121.502 116.264 120.525 117.89 121.599 118.426L121.639 118.445C125.414 120.151 127.021 124.015 128.559 127.603C129.049 128.749 130.721 127.761 130.236 126.625L129.958 125.981C128.353 122.284 126.481 118.516 122.619 116.768ZM128.536 114.433C127.352 114.022 126.844 115.896 128.019 116.306C131.219 117.421 133.415 119.824 135.266 122.571C135.96 123.6 137.642 122.63 136.94 121.591C134.791 118.401 132.238 115.724 128.536 114.433Z" fill="black"/>
<path fill-rule="evenodd" clip-rule="evenodd" d="M122.038 194.764C120.407 194.099 118.952 192.988 117.888 191.57C117.518 191.077 117.422 190.556 117.499 190.08C117.587 189.545 117.903 189.059 118.335 188.734C118.769 188.407 119.31 188.246 119.834 188.328C120.29 188.399 120.743 188.649 121.101 189.166L121.176 189.269C121.809 190.125 122.633 190.828 123.572 191.281C124.478 191.717 125.49 191.921 126.538 191.802C128.533 191.577 129.908 190.497 131.37 189.031C131.551 188.846 131.733 188.655 131.915 188.461C132.03 188.285 132.19 188.172 132.367 188.113C132.564 188.047 132.786 188.051 132.99 188.122C133.187 188.191 133.363 188.321 133.481 188.494C133.593 188.659 133.656 188.862 133.636 189.096C133.502 190.615 132.708 191.971 131.58 193.036C130.328 194.218 128.667 195.036 127.104 195.323C125.382 195.639 123.627 195.413 122.038 194.764ZM127.916 171.327C129.748 172.441 132.54 175.039 130.568 177.801C128.248 180.236 124.908 177.444 123.262 176.181C121.735 175.202 120.021 177.72 121.437 178.862C133.331 187.672 138.159 171.618 128.842 170.017C127.817 169.84 127.436 170.982 127.916 171.327ZM106.599 161.078C106.802 158.565 110.629 157.994 111.009 160.481C111.35 162.71 110.949 164.756 109.945 166.763C108.987 168.679 106.577 167.785 106.395 166.04C106.151 163.7 106.473 162.642 106.599 161.078ZM135.731 159.966C136.264 159.266 137.035 158.789 137.958 159.059C140.842 159.902 139.992 163.997 138.979 165.991C138.429 167.074 136.65 167.348 135.846 166.395C134.536 164.84 133.908 161.736 135.574 160.205C135.619 160.126 135.669 160.046 135.731 159.966ZM109.906 150.079L110.361 149.999C111.771 149.755 113.523 149.521 114.52 150.654C115.048 151.255 115.23 152.372 114.52 152.948C113.27 153.96 111.888 153.568 110.39 153.653C109.155 153.724 107.969 153.929 106.779 154.269C104.171 155.015 102.045 156.376 99.8168 157.871C99.5244 158.068 99.226 157.694 99.3655 157.42C100.652 154.9 103.144 152.829 105.641 151.568C106.973 150.894 108.432 150.335 109.906 150.079ZM133.103 148.95L133.452 149.021C137.246 149.815 142.175 151.4 143.972 155.128C144.041 155.655 143.968 155.768 143.909 155.842L143.89 155.866C143.841 155.929 143.803 156.016 143.574 156.088C143.511 156.073 143.447 156.057 143.382 156.04C142.559 155.824 141.907 155.527 141.276 155.218L140.592 154.881C139.799 154.492 138.998 154.116 138.15 153.84C136.339 153.249 134.477 152.833 132.586 152.61C132.176 152.562 131.781 152.424 131.47 152.187C131.174 151.962 130.948 151.65 130.845 151.236C130.712 150.699 130.75 150.293 131.038 149.81C131.254 149.446 131.563 149.195 131.919 149.05C132.281 148.903 132.693 148.868 133.103 148.95Z" fill="black"/>
<path fill-rule="evenodd" clip-rule="evenodd" d="M148.377 173.499C146.743 175.694 143.715 176.394 140.921 176.152C134.896 175.572 133 168.727 132.803 163.407C136.843 164.544 132.461 156.491 146.272 155.606C151.14 155.2 149.798 158.141 151.949 160.29C151.904 164.801 151.154 169.702 148.377 173.499ZM119.68 168.316C116.123 184.98 96.6444 181.017 94.5982 165.995C96.4876 164.661 95.99 161.367 98.3372 160.174C102.057 157.796 106.708 157.897 110.932 157.953C116.332 158.324 117.871 160.562 120.644 163.004C120.511 164.634 120.126 166.567 119.68 168.316ZM156.092 152.846C155.892 152.813 155.692 152.781 155.492 152.752C155.336 152.663 155.153 152.595 154.94 152.554C154.453 152.431 153.97 152.347 153.488 152.303C146.565 150.744 130.55 152.957 129.889 158.867C127.684 159.603 125.777 158.944 123.221 159.009C121.276 150.877 87.6516 152.025 86.0344 156.928C86.0283 156.926 86.0223 156.925 86.016 156.923C84.4621 156.442 82.1714 156.558 80.3929 156.481C76.5955 156.402 72.7936 156.74 69.0782 157.542C62.1207 158.648 52.6252 159.943 57.464 168.634C57.465 168.636 57.4657 168.637 57.467 168.639L57.4677 168.638C58.3016 169.493 59.7169 168.805 59.7695 167.647C58.1427 163.529 61.8171 163.035 64.6443 161.852C71.679 159.323 78.841 158.973 86.1167 159.755C86.664 160.4 87.4946 160.962 88.3724 161.256C93.237 162.064 90.6733 165.674 93.7482 166.199C93.1834 178.782 108.455 185.651 117.304 177.379C120.837 173.924 121.679 168.805 122.498 164.191C122.931 164.093 123.206 163.856 123.367 163.543C124.409 162.503 125.063 161.542 127.123 161.256C129.183 160.971 130.768 161.544 130.983 161.719C131.037 161.828 131.095 161.937 131.162 162.047C131.256 162.21 131.385 162.339 131.53 162.442C129.496 174.972 139.22 182.897 149.037 176.398C153.302 172.384 154.204 166.238 154.382 160.753C154.96 160.404 155.326 159.728 155.126 158.877C154.85 157.705 155.497 156.69 156.527 156.18C157.866 155.518 157.629 153.101 156.092 152.846Z" fill="black"/>
</g>
<g clip-path="url(#clip2_864_9158)">
<path fill-rule="evenodd" clip-rule="evenodd" d="M377.793 383.416C368.825 383.444 360.11 383.751 351.117 383.781C314.557 383.903 277.662 383.725 240.97 382.243C230.599 381.824 228.01 381.834 217.685 381.184C211.588 381.162 193.274 380.658 194.191 372.351C194.596 356.88 198.425 341.474 199.631 326.044C201.946 297.038 203.917 267.125 215.541 239.995C218.231 233.516 224.009 229.279 229.729 225.469C235.466 221.359 236.873 216.796 242.168 212.153C243.287 211.171 249.644 210.771 253.064 208.281C258.043 204.656 260.511 198.722 262.369 197.712C263.735 196.968 263.71 191.84 266.45 190.025C270.126 187.589 281.84 185.778 286.102 185.44C290.192 185.114 297.307 185.797 301.145 187.296C307.546 189.794 310.098 194.561 312.917 200.702C350.156 212.214 384.193 231.71 394.763 271.032C403.879 304.013 404.213 339.369 400.692 373.194C399.987 375.667 400.481 379.545 398.344 381.184C405.77 381.61 378.801 383.142 377.793 383.416Z" fill="white"/>
<path fill-rule="evenodd" clip-rule="evenodd" d="M208.419 350.851C209.124 350.5 209.858 350.097 210.663 350.069C212.045 350.021 212.047 347.87 210.663 347.918C209.456 347.96 208.396 348.464 207.334 348.994C206.094 349.613 207.185 351.468 208.419 350.851ZM210.663 290.307C209.719 290.308 208.769 290.427 208.044 291.087C207.614 291.479 207.648 292.211 208.044 292.608C208.469 293.032 209.136 292.999 209.565 292.608C209.425 292.735 209.564 292.609 209.615 292.581C209.627 292.574 209.633 292.57 209.637 292.567C209.647 292.564 209.658 292.562 209.676 292.557C209.788 292.529 209.899 292.501 210.013 292.481C210.015 292.486 210.253 292.465 210.309 292.463C210.427 292.458 210.545 292.458 210.663 292.458C211.246 292.458 211.738 291.966 211.738 291.382C211.738 290.802 211.244 290.307 210.663 290.307ZM220.772 314.434C221.08 315.785 223.153 315.21 222.845 313.863C222.399 311.903 222.48 309.896 222.845 307.93C223.097 306.575 221.024 305.999 220.772 307.358C220.334 309.717 220.236 312.083 220.772 314.434ZM223.487 237.132C225.089 236.751 226.672 236.706 228.31 236.706C229.696 236.705 229.694 234.554 228.31 234.555C226.484 234.555 224.7 234.634 222.915 235.058C221.568 235.378 222.142 237.451 223.487 237.132ZM228.854 289.523C229.782 289.059 230.712 288.594 231.64 288.13C232.88 287.51 231.789 285.655 230.555 286.272L227.768 287.666C226.529 288.286 227.62 290.141 228.854 289.523ZM229.24 331.882C230.418 333.581 232.075 334.636 234.062 335.163C235.404 335.519 235.971 333.444 234.634 333.089C233.213 332.712 231.95 332.026 231.097 330.796C230.313 329.665 228.45 330.742 229.24 331.882ZM236.672 256.151C236.991 255.555 237.47 255.303 238.066 255.29C239.45 255.258 239.45 253.107 238.066 253.139C236.709 253.17 235.464 253.851 234.815 255.065C234.162 256.287 236.019 257.372 236.672 256.151ZM250.31 270.771C250.695 271.191 251.442 271.181 251.83 270.771C252.067 270.521 252.267 270.241 252.424 269.934C252.483 269.818 252.54 269.699 252.605 269.586C252.634 269.535 252.667 269.485 252.7 269.437C252.712 269.427 252.735 269.403 252.759 269.377C253.172 268.94 253.162 268.295 252.759 267.856C252.373 267.436 251.626 267.447 251.238 267.856C251.001 268.107 250.802 268.387 250.645 268.694C250.585 268.81 250.529 268.929 250.463 269.042C250.434 269.092 250.401 269.142 250.368 269.191C250.357 269.2 250.334 269.225 250.31 269.25C249.896 269.687 249.907 270.332 250.31 270.771ZM251.457 302.532C252.858 303.173 254.393 303.173 255.794 302.532C256.324 302.29 256.45 301.524 256.179 301.061C255.866 300.525 255.236 300.434 254.708 300.675C254.073 300.966 253.177 300.965 252.542 300.675C252.012 300.433 251.389 300.519 251.072 301.061C250.799 301.527 250.929 302.291 251.457 302.532ZM255.275 325.014C255.516 325.584 256.035 325.886 256.643 325.91C257.245 325.932 257.693 325.398 257.718 324.834C257.734 324.469 257.537 324.158 257.254 323.965C257.254 323.945 257.253 323.925 257.253 323.905C257.253 323.302 256.761 322.855 256.178 322.829C255.598 322.803 255.103 323.342 255.103 323.905C255.103 324.284 255.127 324.661 255.275 325.014ZM260.825 360.755C262.541 360.783 264.217 361.192 265.933 361.22C267.32 361.242 267.316 359.091 265.933 359.069C264.217 359.041 262.541 358.632 260.825 358.604C259.438 358.581 259.442 360.732 260.825 360.755ZM267.959 222.917C268.963 223.874 270.204 224.346 271.427 224.944C272.667 225.55 273.756 223.694 272.513 223.086C271.476 222.58 270.329 222.206 269.479 221.396C268.476 220.441 266.954 221.96 267.959 222.917ZM270.655 247.709C271.36 247.357 272.094 246.955 272.899 246.927C274.281 246.879 274.283 244.728 272.899 244.776C271.692 244.818 270.632 245.322 269.57 245.852C268.33 246.471 269.42 248.326 270.655 247.709ZM283.58 347.213C283.898 346.617 284.378 346.366 284.974 346.352C286.357 346.321 286.358 344.17 284.974 344.201C283.616 344.232 282.371 344.914 281.723 346.128C281.07 347.349 282.927 348.435 283.58 347.213ZM288.057 300.506C288.485 300.113 288.455 299.383 288.057 298.985C287.593 298.52 287.128 298.056 286.664 297.591C286.239 297.166 285.573 297.197 285.143 297.591C284.716 297.984 284.745 298.714 285.143 299.112C285.608 299.577 286.072 300.041 286.537 300.506C286.962 300.931 287.628 300.9 288.057 300.506ZM293.335 373.299C294.886 373.263 296.341 372.818 297.801 372.332C299.11 371.896 298.545 369.819 297.229 370.258C295.96 370.68 294.685 371.117 293.335 371.148C291.951 371.18 291.951 373.331 293.335 373.299ZM300.301 327.303C301.703 327.264 302.865 326.55 303.848 325.594C304.843 324.627 303.32 323.108 302.328 324.074C301.765 324.62 301.116 325.13 300.301 325.152C298.918 325.191 298.917 327.342 300.301 327.303ZM295.976 268.152C295.959 268.725 295.717 269.339 295.362 269.715C294.412 270.722 295.93 272.245 296.882 271.236C297.668 270.404 298.093 269.291 298.126 268.152C298.166 266.766 296.016 266.772 295.976 268.152ZM312.376 221.306C312.826 220.424 313.416 219.391 314.313 218.904C315.531 218.243 314.444 216.386 313.228 217.047C312.009 217.708 311.136 219.013 310.52 220.22C309.891 221.452 311.747 222.539 312.376 221.306ZM315.163 243.675C315.662 243.66 316.157 243.575 316.638 243.445C316.844 243.389 317.047 243.324 317.253 243.268C317.341 243.245 317.716 243.198 317.486 243.21C318.068 243.179 318.561 242.743 318.561 242.135C318.561 241.576 318.066 241.028 317.486 241.059C316.688 241.102 315.962 241.501 315.163 241.524C313.78 241.563 313.779 243.714 315.163 243.675ZM322.132 278.055H324.454C325.84 278.055 325.838 275.904 324.454 275.904H322.132C320.746 275.904 320.749 278.055 322.132 278.055ZM324.839 373.152C325.543 373.505 326.373 373.839 326.944 374.378C327.95 375.329 329.472 373.81 328.464 372.857C327.738 372.17 326.809 371.738 325.924 371.295C325.403 371.034 324.762 371.152 324.453 371.681C324.174 372.159 324.32 372.892 324.839 373.152ZM330.027 345.975C330.117 345.95 330.213 345.932 330.304 345.92C330.669 345.871 331.052 345.888 331.419 345.887C332.805 345.887 332.803 343.736 331.419 343.737C330.328 343.737 329.194 343.752 328.336 344.516C327.901 344.904 327.943 345.644 328.336 346.037C328.764 346.464 329.423 346.423 329.857 346.037C329.811 346.078 329.968 345.992 330.027 345.975ZM331.421 309.424C331.108 308.78 331.104 308.36 331.103 307.644C331.102 306.257 328.952 306.26 328.953 307.644C328.953 308.683 329.108 309.568 329.564 310.51C329.819 311.034 330.564 311.171 331.035 310.895C331.563 310.587 331.674 309.946 331.421 309.424ZM337.636 258.968C338.883 259.392 339.997 259.993 341.095 260.718C342.254 261.483 343.33 259.62 342.18 258.861C340.927 258.034 339.63 257.378 338.208 256.894C336.892 256.446 336.333 258.525 337.636 258.968ZM344.888 222.767C345.814 222.793 346.771 223.149 347.597 223.55C348.837 224.153 349.926 222.297 348.682 221.693C347.502 221.119 346.212 220.654 344.888 220.616C343.501 220.578 343.507 222.729 344.888 222.767ZM348.141 319.405C348.505 319.421 348.817 319.224 349.01 318.941C349.03 318.941 349.05 318.94 349.07 318.94C349.672 318.94 350.119 318.448 350.145 317.865C350.171 317.284 349.632 316.789 349.07 316.789C348.69 316.79 348.314 316.813 347.961 316.962C347.391 317.202 347.089 317.722 347.066 318.33C347.043 318.932 347.577 319.38 348.141 319.405ZM353.428 245.03C354.749 245.462 355.31 243.384 354 242.956C352.463 242.453 350.892 242.064 349.355 241.562C348.035 241.13 347.474 243.208 348.784 243.636C350.32 244.138 351.891 244.528 353.428 245.03ZM358.25 285.629C358.66 286.949 360.735 286.382 360.324 285.057C359.927 283.778 359.899 282.49 359.898 281.161C359.897 279.775 357.747 279.777 357.748 281.161C357.749 282.674 357.799 284.173 358.25 285.629ZM372.627 334.255C372.705 334.791 373.13 335.177 373.686 335.202C374.251 335.227 374.781 334.689 374.761 334.126C374.721 333.043 373.839 332.161 372.757 332.121C372.155 332.099 371.707 332.632 371.682 333.197C371.657 333.746 372.115 334.175 372.627 334.255ZM379.903 272.442C381.039 272.821 382.253 273.182 383.144 274.024C384.15 274.974 385.673 273.455 384.664 272.503C383.49 271.393 381.979 270.87 380.474 270.367C379.157 269.928 378.597 272.006 379.903 272.442ZM384.831 314.226C385.144 314.76 385.776 314.857 386.302 314.612C387.007 314.284 387.786 314.295 388.546 314.294C389.932 314.293 389.93 312.142 388.546 312.143C387.373 312.145 386.291 312.255 385.217 312.755C384.688 313.001 384.559 313.761 384.831 314.226ZM387.619 364.936C388.221 364.958 388.669 364.426 388.694 363.861C388.719 363.312 388.261 362.883 387.749 362.803C387.671 362.267 387.246 361.881 386.69 361.856C386.124 361.831 385.595 362.369 385.615 362.932C385.655 364.014 386.537 364.897 387.619 364.936ZM191.725 373.069C192.09 371.754 192.926 370.692 193.557 369.509C193.769 369.11 193.843 368.863 193.958 368.571C194.113 368.883 194.416 369.117 194.871 369.118C195.744 369.118 196.765 369.062 197.58 369.436C198.11 369.678 198.734 369.592 199.051 369.05C199.323 368.584 199.193 367.82 198.665 367.578C197.464 367.028 196.174 366.967 194.871 366.967C194.549 366.967 194.306 367.085 194.134 367.263C193.636 360.445 193.648 353.621 194.119 346.798C194.622 339.506 195.778 332.36 196.987 325.162C197.573 321.672 198.334 318.147 198.186 314.593C198.038 311.063 196.525 307.772 197.597 304.231C198.027 302.811 198.764 301.51 199.242 300.106C199.755 298.595 199.71 297.103 199.476 295.538C198.995 292.352 198.197 289.204 199.473 286.093C200.038 284.713 200.952 283.482 201.392 282.057C201.941 280.285 201.865 278.325 201.957 276.489C202.142 272.784 202.191 269.054 202.497 265.358C202.634 263.701 202.932 262.131 203.612 260.612C204.266 259.149 205.236 257.818 205.669 256.267C206.099 254.74 206.136 253.129 206.367 251.567C206.609 249.916 206.988 248.29 207.499 246.703C209.472 240.562 213.087 235.045 217.358 230.262C221.898 225.178 227.324 221.349 233.084 217.781C236.113 215.905 239.142 214.029 242.169 212.153C242.233 212.505 242.457 212.828 242.888 212.972C244.025 213.352 245.239 213.713 246.13 214.554C247.136 215.504 248.658 213.985 247.65 213.033C246.598 212.04 245.276 211.517 243.93 211.057C245.309 210.188 246.703 209.287 248.26 208.785C249.623 208.344 251.633 208.728 252.738 207.728C253.606 206.94 253.88 205.48 254.213 204.41C254.63 203.082 254.99 201.681 255.519 200.391C255.88 199.509 256.404 198.662 257.065 197.979C257.355 196.861 257.888 195.839 258.828 195.218C261.29 193.588 264.314 195.207 265.397 197.53C266.292 197.527 267.236 197.724 268.106 197.777C269.896 197.89 271.689 197.941 273.482 197.936C276.99 197.925 280.5 197.697 283.978 197.232C290.197 196.398 296.232 194.718 302.346 193.408C302.381 193.328 302.422 193.247 302.47 193.166C303.787 190.956 307.069 191.33 309.136 192.166C310.023 192.524 310.926 192.975 311.434 193.814C311.971 194.177 312.436 194.618 312.746 195.083C313.385 196.043 313.88 197.979 315.178 198.14C316.033 198.245 316.901 198.081 317.769 198.205C318.855 198.355 319.828 198.737 320.83 199.173C328.464 202.488 336.355 206.174 344.639 207.459C346.582 207.761 348.561 208.072 350.248 209.161C351.619 210.046 352.679 211.261 353.81 212.415C354.912 213.538 355.82 214.036 357.393 214.238C359.301 214.482 360.954 215.009 362.349 216.397C363.507 217.55 364.263 219.023 365.171 220.362C366.096 221.728 367.453 222.497 368.862 223.29C372.192 225.167 375.293 227.434 377.995 230.152C383.685 235.884 387.131 243.251 390.603 250.43C394.358 258.195 397.868 266.054 400.304 274.346C402.69 282.487 404.109 290.862 404.765 299.316C405.456 308.186 405.553 317.091 406.128 325.966C406.416 330.4 406.633 334.839 406.854 339.275C407.069 343.658 407.383 348.048 407.332 352.436C407.235 360.919 405.54 369.429 402.575 377.371C401.836 379.347 401.016 381.296 400.143 383.216C399.376 384.902 396.756 384.714 395.933 383.216C395.745 382.872 395.597 382.517 395.474 382.157C393.323 382.176 391.152 382.009 389.015 382.208C385.241 382.56 381.46 382.756 377.675 382.99C370.187 383.455 362.685 383.765 355.194 384.192C354.467 384.234 353.74 384.275 353.014 384.318C358.352 367.79 357.66 349.922 358.505 332.732C358.573 331.347 356.422 331.355 356.354 332.732C355.506 349.995 356.228 367.91 350.701 384.465C348.557 384.61 346.416 384.787 344.282 385.047C342.556 385.254 340.822 385.499 339.081 385.413C337.105 385.319 335.175 384.867 333.248 384.474C329.746 383.762 326.373 384.085 322.857 384.523C319.097 384.993 315.323 385.254 311.539 385.418C296.385 386.082 281.129 386.687 265.98 385.674C262.314 385.429 258.656 385.085 255.014 384.617C251.262 384.136 247.55 383.326 243.801 382.867C240.105 382.415 236.707 383.654 233.055 383.883C229.33 384.117 225.505 383.34 221.814 382.893C220.61 382.747 219.405 382.606 218.2 382.465C219.752 371.824 220.634 361.104 221.491 350.387C221.602 349.005 219.451 349.017 219.341 350.387C218.491 361.02 217.628 371.661 216.078 382.217C209.688 381.474 203.292 380.721 196.968 379.562C195.167 379.234 193.377 378.699 192.299 377.091C191.501 375.9 191.34 374.44 191.725 373.069Z" fill="black"/>
<path fill-rule="evenodd" clip-rule="evenodd" d="M240.014 147.418C240.592 142.332 239.843 131.702 239.793 131.057C239.476 126.974 241.388 110.852 245.003 112.337C251.068 107.535 259.145 106.474 266.697 105.968C282.386 104.916 299.075 107.331 311.189 117.893C317.18 123.377 323.012 131.354 322.543 139.66C327.986 147.533 335.66 158.333 328.878 167.537C326.573 170.478 322.909 171.573 320.013 173.8C314.188 178.5 310.533 185.244 304.653 189.916C289.075 203.92 262.622 206.845 247.316 190.917C235.48 179.382 237.394 162.124 239.476 147.418C240.876 137.531 238.885 157.34 240.014 147.418Z" fill="white"/>
<path fill-rule="evenodd" clip-rule="evenodd" d="M287.656 84.4009C283.46 83.5539 279.152 83.027 274.867 83.1856L274.537 83.1984C271.313 83.3273 267.23 83.6124 264.418 85.4876C264.256 85.3252 263.996 85.2419 263.76 85.3546C260.418 86.9503 256.742 88.104 253.223 89.2505C249.72 90.3913 246.086 91.1444 242.415 91.4479C241.034 91.5622 239.852 93.0541 240.726 94.3923C240.934 94.7112 241.137 95.0333 241.339 95.3562C241.001 95.321 240.664 95.2847 240.326 95.2505C239.215 95.1387 238.106 96.3247 238.171 97.4066C238.213 98.0871 238.286 98.7595 238.394 99.4239C237.971 99.415 237.551 99.4785 237.144 99.6503C235.087 100.52 235.23 102.971 235.384 104.837C235.597 107.425 236.565 110.167 238.362 112.105C237.02 113.499 236.071 115.164 235.504 117.141C235.093 118.585 234.864 120.123 234.977 121.626L235.013 122.076C235.153 123.707 235.43 125.512 236.603 126.686C237.205 127.291 237.947 127.511 238.654 127.441C238.227 131.2 237.953 134.98 237.695 138.747L237.574 140.548C236.998 149.254 236.565 158.016 236.679 166.737C236.784 174.886 238.393 182.796 243.39 189.413C247.941 195.438 254.475 199.88 261.866 201.568C265.849 202.48 269.916 202.544 273.948 201.964C275.902 201.681 277.869 201.248 279.724 200.566C281.777 199.807 283.253 198.692 284.634 197.019C285.288 196.226 284.973 194.538 283.672 194.696C281.704 194.935 279.908 195.223 278.021 195.805L277.751 195.89C275.872 196.492 273.926 196.941 271.962 197.132C267.938 197.522 263.853 197.129 259.998 195.909C253.722 193.919 248.317 189.485 244.852 183.915C240.74 177.311 240.275 169.815 240.334 162.222C240.398 153.89 240.669 145.554 241.111 137.231L241.186 135.844C241.42 131.56 241.646 127.275 241.845 122.989C241.906 121.645 242 120.289 242.17 118.948C243.721 118.039 245.11 116.786 246.016 115.24C247.836 115.993 249.749 116.536 251.51 116.969C255.589 117.972 259.823 118.216 263.974 117.588C265.094 118.05 266.236 118.457 267.396 118.807C267.709 118.946 268.022 119.083 268.336 119.217C271.131 120.413 273.967 121.427 276.918 122.169L277.643 122.35C279.196 122.733 280.883 123.11 282.535 123.228C282.807 123.333 283.1 123.422 283.42 123.5C284.925 123.865 286.487 123.981 288.029 123.852C289.532 123.726 290.618 122.206 289.79 120.784C289.185 119.746 288.575 118.711 287.959 117.679C290.101 118.571 292.314 119.313 294.544 119.943C296.797 120.577 299.081 121.112 301.369 121.604C302.592 121.865 303.82 122.096 305.04 122.357C305.914 122.543 307.255 122.639 307.968 123.215C308.755 123.847 308.978 125.32 309.277 126.229C309.669 127.409 310.037 128.595 310.373 129.794C311.042 132.187 311.59 134.615 312.015 137.067C312.44 139.522 312.725 142.001 312.884 144.488C313.042 146.972 312.972 149.472 313.227 151.946C313.365 153.258 314.773 153.933 315.813 153.016C315.935 152.909 316.058 152.8 316.18 152.69L316.361 152.524C317.251 151.718 318.114 150.863 318.826 149.9C318.955 149.723 319.079 149.537 319.194 149.349C319.213 149.349 319.229 149.343 319.248 149.33L319.445 149.181C321.619 147.563 325.251 145.453 327.371 148.142C328.046 148.998 328.392 150.089 328.679 151.141L329.182 153.024C329.508 154.254 329.815 155.49 329.994 156.748C330.4 159.566 330.196 162.814 328.258 165.072C327.483 165.976 326.416 166.621 325.226 166.79C324.562 166.882 323.906 166.769 323.247 166.685C322.578 166.602 321.933 166.737 321.264 166.672C320.2 166.567 319.735 167.842 320.132 168.643C320.347 169.073 320.6 169.444 320.888 169.759C320.657 169.958 320.436 170.173 320.224 170.398C319.595 170.6 319.031 171.033 318.608 171.606C318.267 172.068 318.09 172.571 318.06 173.101C318.023 173.232 317.99 173.367 317.961 173.504L317.384 174.44C317.257 174.645 317.131 174.848 317.004 175.047C315.536 177.36 313.907 179.317 311.883 181.161C309.935 182.936 307.82 184.525 305.989 186.428L305.773 186.654C304.067 188.453 302.268 190.631 302.936 193.247C303.108 193.919 304.046 194.403 304.659 193.949C306.629 192.486 307.621 190.168 309.292 188.394C311.013 186.566 312.919 184.923 314.644 183.1C316.276 181.379 317.563 179.43 318.533 177.284C318.92 177.712 319.485 178.016 320.267 178.134C321.611 178.336 322.863 177.548 323.449 176.384C323.826 176.55 324.21 176.701 324.597 176.819C326.634 177.443 327.916 175.176 327.148 173.501C326.737 172.603 326.223 171.824 325.586 171.167C327.578 170.893 329.604 169.863 330.913 168.578C334.198 165.349 334.649 160.496 333.91 156.181C333.518 153.893 332.841 151.578 331.961 149.429C331.808 149.056 331.644 148.679 331.464 148.308C331.564 148.306 331.666 148.263 331.73 148.179C332.324 147.367 333.047 146.703 333.488 145.794C333.894 144.961 334.345 144.117 334.666 143.248C335.324 141.471 335.646 139.465 335.861 137.586C336.305 133.738 336.133 129.915 335.544 126.092C334.542 119.58 332.121 113.348 328.554 107.88C328.748 107.777 328.934 107.654 329.108 107.509L329.193 107.434L329.332 107.308C330.35 106.387 330.262 104.66 329.332 103.726L329.039 103.432C328.667 103.062 328.346 102.769 327.745 102.367C327.657 102.308 327.566 102.252 327.474 102.199C327.789 101.618 327.898 100.938 327.679 100.189C326.916 97.5762 323.158 97.6687 320.776 98.8079C318.141 96.4556 315.22 94.4135 312.053 92.76C304.511 88.8238 295.983 86.0786 287.656 84.4009ZM326.643 153.204C325.235 152.744 323.364 153.71 322.098 154.29C320.493 155.027 319.128 156.116 317.805 157.267C317.147 157.842 317.029 158.783 317.193 159.587C317.209 159.668 317.225 159.751 317.244 159.835C317.419 160.692 318.376 161.367 319.222 161.343C320.993 161.295 321.837 159.765 322.84 158.469C322.958 158.678 323.106 158.872 323.289 159.017L323.412 159.114C323.829 159.431 324.287 159.684 324.837 159.66C325.227 159.641 325.6 159.542 325.944 159.361C326.804 158.907 327.183 157.794 326.95 156.888C326.804 156.318 326.471 155.871 326.036 155.562L326.198 155.451C326.545 155.209 326.862 154.955 327.109 154.578L327.165 154.489H327.143C327.412 154.027 327.237 153.398 326.643 153.204Z" fill="black"/>
<path fill-rule="evenodd" clip-rule="evenodd" d="M260.302 180.262C262.282 180.836 264.407 180.887 266.425 180.295C268.256 179.757 270.136 178.575 271.483 177.01C272.68 175.62 273.455 173.93 273.425 172.127C273.421 171.921 273.347 171.749 273.234 171.616C273.112 171.472 272.942 171.373 272.76 171.33C272.572 171.286 272.374 171.302 272.205 171.379C272.052 171.448 271.921 171.566 271.839 171.739C271.632 172.011 271.426 172.279 271.219 172.539C269.554 174.596 267.942 176.133 265.438 176.684C264.08 176.983 262.723 176.85 261.479 176.394C260.146 175.905 258.942 175.046 257.998 173.947C257.572 173.45 257.068 173.248 256.576 173.244C256.018 173.24 255.466 173.5 255.051 173.914C254.642 174.322 254.369 174.876 254.344 175.455C254.322 175.963 254.488 176.494 254.929 176.968C256.382 178.529 258.265 179.672 260.302 180.262ZM260.361 154.507C258.332 155.741 255.239 158.618 257.422 161.678C259.993 164.376 263.693 161.283 265.516 159.884C267.207 158.8 269.107 161.588 267.538 162.854C254.362 172.612 249.014 154.829 259.335 153.056C260.471 152.86 260.893 154.125 260.361 154.507ZM279.348 149.076C280.001 148.659 280.768 148.516 281.618 148.903C282.283 149.205 283.449 150.213 284.26 151.538C284.815 152.444 285.208 153.508 285.127 154.615C285.108 154.873 285.203 155.062 285.352 155.202C285.471 155.313 285.642 155.395 285.843 155.42C286.013 155.442 286.204 155.422 286.359 155.374C286.654 155.282 286.81 155.09 286.869 154.934C287.437 153.425 287.193 151.741 286.556 150.222C285.697 148.172 284.137 146.454 283.115 145.901C281.366 144.953 279.302 144.909 277.55 145.875C276.059 146.697 275.127 148.023 274.2 149.376C274.003 149.663 273.807 149.949 273.605 150.229C273.2 150.791 273.159 151.348 273.316 151.826C273.49 152.355 273.933 152.802 274.488 153.035C275 153.252 275.595 153.282 276.121 153.06C276.565 152.872 276.973 152.507 277.231 151.887C277.666 150.842 278.39 149.689 279.348 149.076ZM246.218 151.401C246.664 151.634 247.014 151.704 247.509 151.555C247.784 151.473 248.054 151.315 248.266 151.103C248.477 150.893 248.628 150.631 248.687 150.341C248.832 149.625 249.224 148.955 249.782 148.519C250.259 148.145 250.86 147.947 251.528 148.059C252.249 148.179 252.935 148.641 253.408 149.186C253.566 149.369 253.69 149.576 253.814 149.782C254.047 150.166 254.273 150.524 254.595 150.806C254.716 150.914 254.9 150.988 255.078 150.988C255.15 150.988 255.223 150.976 255.293 150.955C256.01 150.235 256.148 149.689 256.125 149.147C256.101 148.579 255.877 148.004 255.515 147.467C254.666 146.208 253.055 145.176 251.967 144.942C250.478 144.622 248.999 145.006 247.814 145.838C246.594 146.694 245.689 148.024 245.408 149.522C245.34 149.882 245.369 150.272 245.506 150.609C245.64 150.939 245.874 151.222 246.218 151.401ZM276.065 135.655C276.958 136.526 278.016 136.661 279.086 136.781C279.681 136.848 280.155 136.903 280.622 137.008C281.906 137.298 283.175 137.735 284.333 138.363C285.543 139.021 286.862 139.813 287.811 140.829C288.036 141.071 288.249 141.324 288.462 141.578C288.656 141.81 288.843 142.033 289.041 142.248C289.267 142.495 289.482 142.754 289.696 143.013C289.828 143.231 289.854 143.284 289.881 143.34C289.921 143.424 289.968 143.518 290.021 143.618C290.094 143.756 290.179 143.907 290.269 144.044C290.417 144.294 290.497 144.363 290.566 144.394C290.681 144.445 290.789 144.47 290.895 144.456C290.994 144.443 291.087 144.396 291.179 144.318C291.637 143.931 291.773 143.294 291.759 142.619C291.738 141.593 291.36 140.458 291.011 139.761C290.201 138.14 289.077 136.454 287.726 135.244C286.185 133.863 284.498 132.817 282.561 132.097C281.357 131.649 279.963 131.238 278.651 131.29C277.707 131.327 276.806 131.608 276.061 132.309C275.604 132.739 275.385 133.352 275.385 133.963C275.385 134.587 275.613 135.215 276.065 135.655ZM244.401 143.631C244.457 143.724 244.536 143.788 244.624 143.827C244.715 143.867 244.818 143.879 244.916 143.863C245.014 143.846 245.107 143.802 245.181 143.734C245.252 143.669 245.305 143.583 245.329 143.477C245.923 140.87 247.075 138.931 249.534 137.68C250.744 137.065 252.135 136.674 253.451 136.362C253.834 136.272 254.238 136.213 254.645 136.153C255.922 135.967 257.207 135.754 258.039 134.722C258.54 134.1 258.751 133.305 258.632 132.578C258.52 131.894 258.12 131.266 257.393 130.89C255.583 129.954 253.335 130.873 251.507 131.655C251.372 131.713 251.239 131.77 251.108 131.825C249.321 132.579 247.692 133.575 246.352 135C245.289 136.13 244.304 137.8 243.907 139.519C243.577 140.949 243.655 142.408 244.401 143.631Z" fill="black"/>
<path fill-rule="evenodd" clip-rule="evenodd" d="M254.67 184.605C257.173 182.374 259.979 177.889 263.575 181.438C264.464 182.44 264.824 184.688 266.184 185.129C267.991 185.715 269.781 183.803 270.396 182.335C272.915 174.179 262.504 171.942 256.573 173.259C253.675 174.45 251.541 179.241 251.412 181.741C251.329 183.422 252.751 185.893 254.67 184.605ZM235.786 172.032C235.81 171.924 235.845 171.826 235.886 171.737C236.993 171.319 237.869 171.745 238.41 172.543C238.392 172.741 238.333 172.942 238.296 173.138C238.714 174.019 239.09 175.108 239.656 175.869C239.768 175.877 239.884 175.865 239.995 175.833C249.379 176.813 244.798 166.992 254.316 164.552C261.673 163.338 274.971 164.729 278.442 172.389C281.179 184.625 295.097 176.099 299.667 169.736C304.543 163.945 307.696 156.868 310.736 150.001C311.378 148.548 313.383 149.587 313.165 150.982C315.975 156.62 315.881 163.393 316.577 169.57C317.761 181.893 318.914 199.176 307.467 206.701C292.554 223.563 255.312 229.514 238.11 214.02C232.156 201.214 232.89 185.591 235.786 172.032Z" fill="black"/>
<path fill-rule="evenodd" clip-rule="evenodd" d="M245.584 134.511C239.275 134.511 235.675 135.869 234.356 135.974L234.316 135.977C233.768 136.012 233.275 136.058 232.759 136.258C230.86 136.99 230.55 138.982 231.659 140.238C231.736 142.836 231.395 145.872 231.981 148.479C232.704 159.467 237.87 161.322 240.807 161.999C242.281 162.339 244.028 162.474 245.595 162.115C248.266 162.015 250.907 161.179 253.167 159.722C256.314 157.692 258.652 154.571 259.41 150.867C259.77 149.101 259.938 147.264 259.742 145.469L259.713 145.222C260.736 144.732 261.922 144.64 263.144 144.597C263.728 144.576 264.303 144.557 264.862 144.582C265.408 144.643 265.948 144.724 266.49 144.835C267.081 145.013 267.639 145.308 268.155 145.774L268.19 146.455C268.287 148.156 268.51 149.862 268.855 151.531C269.363 153.993 270.181 156.345 271.921 158.091C272.51 158.971 273.239 159.757 274.124 160.437C277.339 162.913 281.707 163.822 285.715 163.48C293.853 162.785 298.557 156.323 299.641 153.561L299.706 153.394C300.489 151.34 301.113 148.676 303.587 148.234L304.114 148.14C305.243 147.928 306.285 147.633 306.947 146.531C307.237 146.05 307.386 145.511 307.423 144.963C307.809 144.993 308.195 145.021 308.579 145.048C311.646 145.697 330.038 146.247 331.506 146.247C331.506 146.247 334.328 147.435 335.519 146.515C336.345 145.875 336.616 145.021 336.162 144.055C335.476 142.601 332.311 141.726 330.906 141.449C330.906 141.449 308.231 141.637 306.599 141.328C305.589 140.286 303.783 140.429 302.273 140.264C301.024 139.373 299.276 138.776 297.895 138.376C297.614 138.27 297.335 138.167 297.064 138.07C294.533 137.168 291.902 136.69 289.231 136.434C286.476 136.172 283.714 136.29 280.976 136.666C279.822 136.822 278.678 137.025 277.543 137.29C275.511 137.558 273.49 137.999 271.457 138.523L271.05 138.629C268.909 139.19 266.708 139.676 264.492 139.295C262.687 138.987 260.952 138.293 259.288 137.541L259.072 137.443C255.413 135.772 249.7 134.511 245.584 134.511ZM277.762 140.621C279.112 140.324 279.689 142.406 278.334 142.704C277.376 142.915 276.563 143.398 276.014 144.218L275.956 144.307C275.219 145.48 273.356 144.397 274.098 143.217C274.933 141.888 276.23 140.958 277.762 140.621ZM238.229 139.33C238.705 138.995 239.425 139.244 239.701 139.718C240.005 140.239 239.806 140.82 239.36 141.162L239.315 141.195C238.906 141.483 238.508 142 238.458 142.529L238.453 142.595C238.4 143.98 236.248 143.987 236.301 142.595C236.354 141.233 237.142 140.095 238.229 139.33Z" fill="black"/>
</g>
</g>
<defs>
<clipPath id="clip0_864_9158">
<rect width="375" height="375" fill="white"/>
</clipPath>
<clipPath id="clip1_864_9158">
<rect width="275.632" height="298.601" fill="white" transform="translate(-42.3672 76.1572)"/>
</clipPath>
<clipPath id="clip2_864_9158">
<rect width="305.315" height="330.758" fill="white" transform="matrix(-1 0 0 1 448.998 44)"/>
</clipPath>
</defs>
</svg>
